# xmcd CD database file
#
# Track frame offsets:
#	150
#	12206
#	25326
#	37460
#	50968
#	65246
#	78280
#	91234
#	103089
#	115457
#
# Disc length: 1689 seconds
#
# Revision: 0
# Processed by: cddbd v1.5.1PL2 Copyright (c) Steve Scherf et al.
# Submitted via: CDex 1.70beta2
#
DISCID=8e06970a
DTITLE=Hank Snow - Wandering On
DYEAR=2003
DGENRE=Country
TTITLE0=Wandering On
TTITLE1=The Texas Country
TTITLE2=My Little Swiss Maiden
TTITLE3=The Hobo's Last Ride
TTITLE4=Galveston Rose
TTITLE5=Blue for Old Hawaii
TTITLE6=We Met in the Hills of Old Wyoming
TTITLE7=I'll Ride Back to Lonesome Valley
TTITLE8=Polka Dot Blues
TTITLE9=I'm Sending You Red Roses
EXTD=YEAR: 2003
EXTT0=
EXTT1=
EXTT2=
EXTT3=
EXTT4=
EXTT5=
EXTT6=
EXTT7=
EXTT8=
EXTT9=
PLAYORDER=
